Coordinates
version=1
nRows=5
nColumns=40
inDegrees=yes

Units are S.I. units (second, meters, Newtons, ...)
If the header above contains a line with 'inDegrees', this indicates whether rotational values are in degrees (yes) or radians (no).

endheader
time	pelvis_tilt	pelvis_list	pelvis_rotation	pelvis_tx	pelvis_ty	pelvis_tz	hip_flexion_r	hip_adduction_r	hip_rotation_r	knee_angle_r	knee_angle_r_beta	ankle_angle_r	subtalar_angle_r	mtp_angle_r	hip_flexion_l	hip_adduction_l	hip_rotation_l	knee_angle_l	knee_angle_l_beta	ankle_angle_l	subtalar_angle_l	mtp_angle_l	lumbar_extension	lumbar_bending	lumbar_rotation	arm_flex_r	arm_add_r	arm_rot_r	elbow_flex_r	pro_sup_r	wrist_flex_r	wrist_dev_r	arm_flex_l	arm_add_l	arm_rot_l	elbow_flex_l	pro_sup_l	wrist_flex_l	wrist_dev_l
      4.60000000	     -8.68528670	     -4.40077166	     -1.78377714	     -0.41543107	      0.88241712	     -1.05100796	     62.31139473	      1.41703472	     -7.24872721	      5.01060937	      0.08745163	      3.70251705	      0.00000000	      0.00000000	     50.82963342	     -2.95801923	     -1.12139601	     71.24436637	      1.24344877	     16.14660419	      0.00000000	      0.00000000	    -10.86078913	     -3.81006673	      4.92427940	     89.97064544	    -10.66777376	      8.18265048	     49.53573757	     31.00086148	      0.00000000	      0.00000000	     89.96170111	    -28.09579375	      2.79204313	     52.96009956	     52.41437885	      0.00000000	      0.00000000
      4.60500000	     -8.70652646	     -4.40740329	     -1.77253962	     -0.41521112	      0.88301543	     -1.05099182	     62.28345543	      1.42385045	     -7.24493614	      5.01150924	      0.08746734	      3.71248209	      0.00000000	      0.00000000	     50.81184240	     -2.97161614	     -1.12263881	     71.21945530	      1.24301399	     16.13808865	      0.00000000	      0.00000000	    -10.82554734	     -3.82092989	      4.91538130	     89.97059089	    -10.66806795	      8.18379300	     49.55964048	     30.99349544	      0.00000000	      0.00000000	     89.96162137	    -28.10365400	      2.79023455	     52.97750766	     52.42414192	      0.00000000	      0.00000000
      4.61000000	     -8.60447344	     -4.32691052	     -1.73332328	     -0.41483397	      0.88402901	     -1.05105336	     62.09568537	      1.35710340	     -7.04180435	      4.99872344	      0.08724418	      3.83598342	      0.00000000	      0.00000000	     50.53738946	     -2.92833705	     -1.24683782	     70.93155254	      1.23798914	     15.95775148	      0.00000000	      0.00000000	    -10.92690383	     -3.84144739	      4.66997138	     89.97065278	    -10.25910474	      8.47622068	     50.78145867	     14.81980428	      0.00000000	      0.00000000	     89.96149106	    -28.63644115	      1.83260507	     52.11127132	     70.58900930	      0.00000000	      0.00000000
      4.61500000	     -8.63069733	     -4.33157180	     -1.71565817	     -0.41461668	      0.88467558	     -1.05104751	     62.07153276	      1.35696629	     -7.04022681	      5.00413386	      0.08733861	      3.83724621	      0.00000000	      0.00000000	     50.52318588	     -2.94031238	     -1.25136055	     70.90056531	      1.23744831	     15.95168728	      0.00000000	      0.00000000	    -10.88169719	     -3.85029507	      4.66044152	     89.97059725	    -10.25614086	      8.47034248	     50.80396164	     14.82295226	      0.00000000	      0.00000000	     89.96147295	    -28.63780818	      1.82301725	     52.14057131	     70.59081394	      0.00000000	      0.00000000
      4.62000000	     -8.63723735	     -4.39836273	     -1.63000070	     -0.41430972	      0.88550157	     -1.05103979	     62.01151931	      1.33428884	     -7.03549152	      5.03224542	      0.08782925	      3.84238867	      0.00000000	      0.00000000	     50.40030102	     -2.98665064	     -1.26290225	     70.64544905	      1.23299569	     15.88212450	      0.00000000	      0.00000000	    -10.85063366	     -3.80814304	      4.56450806	     89.97049843	    -10.27504683	      8.48418983	     50.73110717	     14.82936716	      0.00000000	      0.00000000	     89.96141628	    -28.63934640	      1.81787918	     52.14910090	     70.60444135	      0.00000000	      0.00000000
